<svg id="svg1" width="223.33mm" height="153.01mm" version="1.1" viewBox="0 0 186.11 127.51" xml:space="preserve" xmlns="http://www.w3.org/2000/svg"><g id="layer3" transform="translate(-5.4202 -20.104)" fill="#fff"><path id="nube1" transform="scale(.26458)" d="m673.14 139.4c-3.382-0.34665-6.5504-1.4834-8.6881-3.1171-0.26921-0.20574-0.93858-0.8105-1.4875-1.3439-0.96408-0.93686-1.0043-0.96571-1.1829-0.8482-0.10168 0.0669-0.88237 0.6073-1.7349 1.2009-2.1045 1.4653-3.3583 2.0498-5.2796 2.4612-1.1198 0.23978-3.4001 0.29751-4.6322 0.11726-3.6476-0.53363-6.6532-2.2156-8.5818-4.8026-0.86091-1.1548-1.5276-2.7718-1.5325-3.7168-7.8e-4 -0.15091 0.0726-0.5805 0.16303-0.95464 0.19293-0.79808 0.13667-1.2398-0.20088-1.5774-0.19909-0.19909-0.22402-0.20422-0.4341-0.0892-0.32707 0.17899-0.71571 1.036-0.95188 2.099-0.4331 1.9493-0.60645 2.0574-3.4018 2.1216-3.8219 0.0877-4.666-0.21787-6.9112-2.5022-1.5382-1.565-2.089-2.3741-2.4196-3.5543-0.20921-0.747-0.26169-3.6961-0.0879-4.9423 0.3755-2.6933 1.49-4.8628 3.5584-6.9268 2.5005-2.4953 5.4692-4.2107 8.6859-5.0191 1.8596-0.46732 2.761-0.56616 5.1802-0.56798 2.6895-2e-3 4.2572 0.17662 7.1381 0.81345 1.7157 0.37926 1.8477 0.396 2.0361 0.25813 0.15494-0.11342 0.14433-0.14744-0.35103-1.1253-0.65362-1.2903-0.80836-2.0435-0.67651-3.2926 0.39882-3.7785 3.5423-8.0614 7.3663-10.036 1.3501-0.69731 3.5804-1.3097 5.5017-1.5108 2.0975-0.21946 4.1382 0.30332 7.2408 1.8549 2.0508 1.0256 3.2841 1.8598 4.4829 3.0322 1.4863 1.4536 2.2848 2.9895 2.5081 4.8245 0.11393 0.93637 0.0599 1.6463-0.25648 3.3705-0.13064 0.71195-0.23753 1.5118-0.23753 1.7776v0.48309l0.30293-0.12657c0.16662-0.0696 0.91-0.48738 1.652-0.92837 1.6122-0.95818 1.7994-1.0541 2.6951-1.3815 1.3575-0.49609 1.9804-0.61686 3.1816-0.61686 0.86863 0 1.2478 0.0378 1.7947 0.17897 2.6104 0.67371 5.2481 2.0858 6.8127 3.6471 0.78043 0.77878 1.0689 1.2298 1.3894 2.1721 0.58113 1.7086 0.73287 4.4827 0.32016 5.8531-0.0901 0.29932-0.2432 0.55116-0.48247 0.79386-0.4927 0.49977-0.5489 0.92479-0.19033 1.4394 0.11302 0.1622 0.22578 0.22434 0.40714 0.22434 0.25746 0 0.49969-0.21254 1.3334-1.17 0.51407-0.59035 0.82406-0.53522 1.9941 0.35466 1.7635 1.3412 2.4474 2.6526 2.4474 4.6929 0 2.0148-0.90912 4.136-2.4954 5.8222-1.0848 1.1531-2.3467 1.9843-3.7231 2.4524-0.97524 0.33162-1.7386 0.43155-3.0465 0.39881-1.7762-0.0445-1.8248-0.10468-1.9203-2.38-0.0679-1.6176-0.19146-2.2818-0.47176-2.5355-0.21007-0.19012-0.4436-0.0678-0.6519 0.34158-0.25023 0.49173-0.33277 0.8865-0.45567 2.1795-0.0665 0.69913-0.18322 1.416-0.2724 1.6724-0.60211 1.7309-2.0146 3.6326-3.8089 5.1279-2.873 2.3943-5.7756 3.379-9.8548 3.3432-0.81654-7e-3 -1.6131-0.0262-1.7702-0.0423z" stroke-width=".081578"/><g stroke-width=".061049"><path id="nube2" d="m159.38 63.248c-0.61813-0.18004-1.0244-0.41645-1.6542-0.9626-0.26136-0.22664-0.49651-0.41208-0.52255-0.41208-0.0261 0-0.25175 0.15384-0.50156 0.34186-0.24982 0.18802-0.63687 0.42767-0.86013 0.53257-0.35157 0.16518-0.48764 0.19378-1.0164 0.21358-0.73767 0.02763-1.1863-0.07254-1.906-0.42555-0.93989-0.46106-1.3966-1.1187-1.5172-2.1847-0.0232-0.20515-0.0612-0.38475-0.0844-0.39912-0.0232-0.01437-0.1311 0.19118-0.23968 0.45677-0.23869 0.58377-0.45296 0.79305-0.812 0.79305-0.60057 0-1.6107-0.4147-2.093-0.8593-0.4114-0.37922-0.54909-0.75522-0.54599-1.4911 4e-3 -1.0197 0.36639-1.8313 1.1849-2.6559 0.52675-0.53056 1.1968-0.91611 1.859-1.0697 0.54649-0.12674 2.0743-0.21176 2.7215-0.15145 0.28641 0.02669 0.62629 0.09263 0.7553 0.14654 0.26998 0.11281 0.647 0.13015 0.647 0.02976 0-0.03754-0.0859-0.16609-0.19089-0.28567-0.19023-0.21667-0.19078-0.21932-0.15968-0.77117 0.0345-0.61192 0.22134-1.2154 0.50153-1.6197 0.19781-0.28543 0.91598-0.86896 1.3239-1.0756 0.50815-0.2575 1.0334-0.34684 1.8524-0.31506 0.79406 0.03083 1.4313 0.19712 1.9841 0.51778 0.42518 0.24664 1.0026 0.83666 1.2282 1.2551 0.18401 0.34128 0.20378 0.42642 0.20123 0.86687-2e-3 0.2686-0.0254 0.6601-0.0531 0.86994-0.0499 0.3793-0.0493 0.38155 0.10172 0.38155 0.0836 0 0.27101-0.08625 0.41653-0.19167 0.67827-0.49135 1.4188-0.64293 2.2199-0.45444 0.82689 0.19457 1.6126 0.75916 1.8761 1.3482 0.20232 0.45219 0.2289 1.2218 0.0595 1.7227-0.0706 0.2088-0.12839 0.42171-0.12839 0.47312 0 0.13999 0.173 0.11289 0.37743-0.05912 0.0998-0.08394 0.24108-0.15217 0.31405-0.15162 0.22176 0.0016 0.60536 0.25961 0.80168 0.53906 0.16835 0.23963 0.18551 0.30797 0.18378 0.73207-2e-3 0.39438-0.0315 0.53003-0.19082 0.86459-0.34374 0.72201-0.86274 1.1789-1.5968 1.4056-0.47476 0.14664-0.88251 0.15657-1.0144 0.02471-0.11548-0.11548-0.0931-0.02816-0.1527-0.59639-0.0318-0.30366-0.0863-0.51471-0.1489-0.57734-0.14825-0.14825-0.22334-0.02854-0.28434 0.45333-0.0971 0.76712-0.3307 1.2251-0.91923 1.8022-0.42851 0.42021-0.92696 0.67325-1.7347 0.88063-0.89466 0.22967-1.6283 0.2482-2.2826 0.05761z"/><path id="nube3" d="m122.65 56.16c-0.61131-0.14789-1.4359-0.57731-1.7343-0.90314-0.3634-0.39687-0.55898-0.83777-0.55972-1.2617-1e-3 -0.64698-0.30649-0.74559-0.42637-0.1377-0.12691 0.64362-0.1372 0.66208-0.35911 0.64425-0.31009-0.0249-0.76263-0.28646-1.0391-0.60057-0.49855-0.56639-0.56297-1.3109-0.16117-1.8631 0.412-0.56623 0.47066-0.66788 0.43664-0.75654-0.0324-0.08451-0.0555-0.08522-0.20552-0.0063-0.0929 0.04891-0.30633 0.23059-0.47424 0.40375-0.36935 0.38097-0.5608 0.48839-0.87023 0.48839-0.65446 0-1.5395-1.026-1.8146-2.1038-0.44204-1.7314 0.81512-4.164 2.6466-5.1209 0.58525-0.30583 0.98842-0.40894 1.7563-0.4492l0.68018-0.03567-0.27612-0.45481c-0.41803-0.68857-0.52506-1.0061-0.52998-1.5728-6e-3 -0.64047 0.1874-1.055 0.75781-1.6281 0.51591-0.51828 0.82795-0.62613 1.703-0.58856 0.71371 0.03064 0.96403 0.13676 1.2538 0.53149 0.32067 0.43685 0.32279 0.51305 0.0374 1.3428-0.20665 0.60078-0.24037 0.75855-0.18448 0.86298 0.0376 0.07029 0.10087 0.11801 0.14057 0.10605 0.0397-0.01196 0.22327-0.31374 0.40795-0.6706 0.42756-0.82626 0.53419-0.93669 1.0579-1.0958 0.94736-0.28776 2.0294 0.02789 2.745 0.80067 0.40047 0.43256 0.60091 0.83634 0.74405 1.4989 0.11328 0.5244 0.31924 1.0683 0.40449 1.0683 0.0288 0 0.1147-0.12886 0.19089-0.28636 0.2153-0.44505 0.38769-0.53863 0.98244-0.53339 1.2011 0.01061 2.2567 0.81401 2.6812 2.0407 0.17583 0.50805 0.18615 1.5287 0.0216 2.1367-0.13689 0.50582-0.50082 1.286-0.81506 1.7472-0.63373 0.93008-1.7557 1.7315-2.456 1.7543l-0.27376 0.0089-0.0442-0.39208c-0.0518-0.4591-0.18666-0.65648-0.32302-0.47265-0.0457 0.06163-0.0995 0.3226-0.11947 0.57996-0.087 1.1199-0.34536 1.9423-0.85674 2.727-0.31416 0.48212-1.1976 1.351-1.6369 1.61-0.98694 0.58178-2.4666 0.82851-3.4874 0.58152z"/><path id="nube4" d="m109.03 35.046c-0.80599-0.18641-1.3536-0.47431-2.0503-1.0779-0.19092-0.1654-0.36702-0.30072-0.39136-0.30072-0.0243 0-0.22664 0.13173-0.44958 0.29273-0.88214 0.63706-1.3058 0.80615-2.0199 0.80615-0.60779 0-1.0564-0.12045-1.806-0.48492-0.80141-0.38967-1.1248-0.7205-1.3144-1.3445-0.0909-0.29913-0.12402-0.53413-0.10432-0.73921 0.0204-0.21233 4e-3 -0.32154-0.0568-0.37176-0.13255-0.11-0.25845 0.05873-0.31615 0.42372-0.0273 0.17268-0.0882 0.36052-0.13544 0.41746-0.34306 0.41364-1.4985 0.32726-2.2836-0.1707-1.5417-0.97786-1.491-3.0382 0.11198-4.546 1.0386-0.97694 2.0612-1.2947 3.9478-1.2269 0.71201 0.02561 0.95688 0.05856 1.2515 0.16843 0.65457 0.24408 0.86218 0.15114 0.57218-0.25614-0.28892-0.40573-0.19703-1.2338 0.23128-2.0843 0.54533-1.0829 1.682-1.6898 3.1646-1.6898 1.5194 0 2.8167 0.71124 3.3583 1.8411 0.26855 0.56038 0.31231 0.93791 0.19092 1.6474-0.0531 0.31043-0.0883 0.57268-0.0782 0.58276 0.0101 0.01011 0.16732-0.09368 0.3494-0.2306 0.85783-0.64512 1.5917-0.79922 2.5901-0.5439 0.83184 0.21275 1.3713 0.61801 1.6933 1.272 0.17488 0.35522 0.1989 0.4636 0.19817 0.89391-5.3e-4 0.27342-0.0509 0.68643-0.11412 0.93516-0.0623 0.24502-0.0988 0.46-0.0811 0.4777s0.14601-0.04311 0.28511-0.13516c0.44851-0.29681 0.74201-0.1983 1.1424 0.38348 0.21477 0.31205 0.23338 0.37221 0.23011 0.74392-9e-3 1.0672-0.95894 2.0983-2.1528 2.3374-0.33014 0.06614-0.40957 0.06407-0.54943-0.01434-0.23261-0.13038-0.3-0.31384-0.35726-0.97241l-0.0504-0.57996-0.16559 0.66621c-0.22681 0.91254-0.41084 1.2647-0.92804 1.7761-0.47461 0.46926-1.017 0.78784-1.7146 1.0071-0.5467 0.17183-1.6605 0.22071-2.1978 0.09645z"/><path id="nube5" d="m45.852 81.768c-0.19988-0.02913-0.46084-0.0844-0.57996-0.12282-0.3211-0.10359-0.96011-0.48863-1.4597-0.87954l-0.44108-0.34512-0.54866 0.37073c-0.73453 0.4963-1.2137 0.64499-2.071 0.64266-1.0755-0.0029-1.8926-0.352-2.5349-1.083-0.42534-0.48413-0.58237-0.85054-0.57189-1.3345 0.01662-0.76575-0.22938-0.70405-0.43222 0.10841-0.10727 0.42965-0.19766 0.46968-0.9908 0.43888-0.90351-0.03508-1.2871-0.17719-1.7631-0.65325-0.48222-0.48222-0.62494-0.8702-0.63068-1.7143-0.0067-0.99331 0.27246-1.6419 1.0135-2.3544 0.51506-0.49521 0.74776-0.65828 1.3457-0.94296 1.2064-0.5744 2.5594-0.67164 4.1499-0.29823 0.29969 0.07036 0.56086 0.11196 0.58036 0.09245 0.0195-0.0195-0.03808-0.14161-0.12798-0.27133-0.62711-0.90492 0.30255-2.8556 1.6715-3.5075 1.5415-0.734 3.2297-0.47087 4.4042 0.68643 0.62917 0.61996 0.87833 1.1175 0.87235 1.7423-0.0021 0.23504-0.0263 0.58155-0.05347 0.77003-0.03253 0.2258-0.02747 0.35623 0.01487 0.38237 0.03533 0.02183 0.21952-0.09619 0.40931-0.26227 0.43047-0.37671 0.76186-0.49331 1.4018-0.49331 0.93254 0 1.7502 0.32493 2.3795 0.94556 0.55136 0.54374 0.60835 0.69928 0.55776 1.5225-0.02283 0.37179-0.05487 0.77212-0.07118 0.88965-0.0163 0.11752-0.0016 0.25488 0.03268 0.30525 0.05257 0.07722 0.08453 0.06406 0.20393-0.08394 0.09475-0.11744 0.19787-0.17552 0.31168-0.17552 0.24948 0 0.65626 0.31099 0.81954 0.62658 0.20812 0.40221 0.16708 1.061-0.09987 1.6032-0.37396 0.75964-1.2201 1.3529-2.032 1.4248-0.56194 0.04975-0.62002-0.0088-0.67201-0.67759-0.0227-0.29204-0.07194-0.56162-0.1094-0.59909-0.12745-0.12745-0.25541 0.10361-0.31766 0.57356-0.11192 0.8451-0.61555 1.5809-1.452 2.1216-0.79808 0.51582-2.0175 0.72553-3.2091 0.55189z"/></g><g stroke-width=".1221"><path id="sol" d="m66.478 57.782c-2.4543-1.0404-3.9041-3.2448-3.9041-5.9359 0-3.1355 2.7342-5.9803 5.7631-5.9959 2.2435-0.01167 4.2354 1.3031 5.3122 3.5065l0.46288 0.94717-0.01347 1.5262c-0.01037 1.1757-0.07052 1.7015-0.26185 2.2891-0.50895 1.5632-1.5054 2.6783-3.0578 3.4218-0.81999 0.39272-1.0004 0.43079-2.2588 0.47698-1.2268 0.04503-1.4371 0.02074-2.0421-0.23574z"/><path id="techo-interior" d="m62.422 90.375c1.07-0.94518 20.551-17.36 26.099-21.991 1.6788-1.4014 3.1411-2.6241 3.2493-2.717 0.17278-0.14821 0.33715-0.06059 1.3431 0.71593 2.8302 2.1848 28.556 23.946 28.556 24.155 0 0.04619-0.42037 0.11951-0.93416 0.16294-0.51378 0.04343-13.948 0.07896-29.853 0.07896h-28.919z"/><path id="techo-exterior" d="m105.67 94.561c-6.4581-0.0461-11.754-0.13202-11.857-0.1924-0.1633-0.09524-0.13244-0.30009 0.24303-1.6135l0.43007-1.5044 12.221 0.08711c11.33 0.08075 16.311 0.02611 16.311-0.1789 0-0.28085-21.886-18.932-29.159-24.85-1.4333-1.1661-1.6579-1.3083-1.8925-1.1976-0.89015 0.41994-29.506 24.364-30.657 25.653-0.44738 0.50053-2.4161 0.44248 20.4 0.60155 6.7267 0.0469 12.262 0.11716 12.301 0.15614 0.03894 0.03898-0.0084 0.31369-0.1053 0.61049-0.09686 0.29678-0.29133 0.93796-0.43216 1.4248l-0.25605 0.8852-20.172-9e-3c-11.094-5e-3 -20.407-0.04619-20.695-0.09157l-0.52315-0.08258 6.7473-5.6776c3.711-3.1226 12.463-10.481 19.448-16.351s12.987-10.916 13.337-11.213l0.63584-0.5398 4.8585 4.1288c28.879 24.54 34.34 29.188 34.689 29.517l0.40414 0.38054-0.46521 0.08454c-0.544 0.09886-9.4624 0.08944-25.811-0.02725z"/><path id="casamuro" d="m59.766 118.43v-23.259h64.102v46.518h-5.0961l-0.0903-21.337c-0.0496-11.735-0.11505-21.378-0.14535-21.428-0.0303-0.05036-5.7935-0.09157-12.807-0.09157h-12.752v42.857h-33.21zm25.03-0.66394v-10.615l-10.409 0.0634c-5.725 0.0349-10.478 0.0847-10.562 0.11067-0.22369 0.0693-0.22369 20.629 0 20.774 0.17361 0.11236 6.4227 0.21856 15.079 0.25627l5.8911 0.0257z"/><path id="puerta" d="m94.81 121.49v-20.085h21.611v40.171h-21.611zm2.7569 2.2728c0.39597-0.24147 0.78387-0.90942 0.78387-1.3498 0-0.38311-0.45029-1.2008-0.70003-1.2712-0.83176-0.23448-1.0202-0.22182-1.4376 0.0965-1.4765 1.1262-0.21402 3.4806 1.3538 2.5245zm13.481-8.1099c0.38141-0.13048 0.43412-0.20324 0.50352-0.69516 0.0426-0.3022 0.0982-2.4988 0.12344-4.8815l0.0459-4.332-0.67153-0.10506c-0.73741-0.11537-12.061-0.0282-12.183 0.0937-0.04164 0.0416-0.07844 2.208-0.08178 4.8143-0.0065 5.0437-0.0039 5.0662 0.58276 5.1802 0.14622 0.0285 2.7384 0.0561 5.7602 0.0615 3.9605 7e-3 5.6133-0.031 5.9205-0.13599z"/><path id="ventana1" d="m65.14 112.63v-4.1513h8.4248v8.3025h-8.4248z"/><path id="ventana2" d="m74.908 112.63v-4.1513h8.4248v8.3025h-8.4248z"/><path id="ventana3" d="m65.14 122.4v-4.1513h8.4248v1.1976c0 0.86402-0.04994 1.2637-0.17926 1.4347-0.24954 0.32993-0.24954 2.2198 0 2.5497 0.13412 0.17732 0.17926 0.60012 0.17926 1.6788v1.4418h-8.4248z"/><path id="ventana4" d="m74.908 122.4v-4.1513h8.4248v8.3025h-8.4248z"/><path id="bush1" d="m41.661 143.85c-0.32207-0.0904-0.73717-0.30966-0.9224-0.48714-0.40396-0.38703-0.50458-0.39295-1.3321-0.0784-0.9369 0.3561-1.3196 0.32123-1.8053-0.16447-0.2904-0.2904-0.3893-0.48238-0.34192-0.66362 0.08911-0.34078 0.40168-0.60559 0.77493-0.65653 0.42214-0.0576 0.38322-0.36951-0.06091-0.48831-0.48773-0.13043-0.67169-0.41084-0.67169-1.0238 0-0.95715 0.87073-1.7652 1.9022-1.7652 0.34684 0 0.57017 0.0755 0.72289 0.2442 0.2141 0.23657 0.67029 0.32683 0.83245 0.16469 0.04372-0.0437-0.0051-0.14135-0.10846-0.21694-0.38957-0.28487-0.47196-1.4554-0.13458-1.9119 0.4156-0.56231 1.0274-0.60522 1.5897-0.11152 0.22945 0.20147 0.45629 0.36629 0.5041 0.36629s0.04945-0.27239 0.0037-0.60528c-0.16007-1.1639 0.73434-2.0897 2.0285-2.0997 0.70598-5e-3 1.0942 0.21414 1.5422 0.87227 0.32411 0.47622 0.35906 1.1696 0.07912 1.5692-0.25882 0.36951-0.12883 0.47169 0.35287 0.27741 1.1932-0.48129 1.593-0.47248 2.112 0.0465 0.21503 0.21503 0.29474 0.42912 0.29474 0.7917 0 0.42111-0.0478 0.51514-0.31318 0.61605-0.17226 0.0655-0.49519 0.11908-0.71765 0.11908-0.22245 0-0.47365 0.0834-0.55826 0.18532-0.185 0.22292-0.10159 1.469 0.12692 1.896 0.14558 0.27201 0.15748 0.27405 0.31832 0.0541 0.26482-0.36218 0.21553-1.1917-0.08186-1.3774-0.13691-0.0855-0.21609-0.20861-0.17594-0.27357 0.11624-0.18809 0.79083-0.13893 0.86843 0.0633 0.06158 0.16046 0.09949 0.16046 0.32858 0 0.14601-0.10227 0.52673-0.18119 0.87282-0.18093 0.76249 5.3e-4 1.3718 0.34011 1.4714 0.8199 0.20214 0.97421 0.25612 1.0726 0.73387 1.3378 0.81366 0.45153 0.94683 1.3287 0.29993 1.9756-0.58319 0.58318-1.9239 0.8175-2.5629 0.44793-0.16788-0.0971-0.37181-0.21125-0.4532-0.25366-0.08137-0.0424-0.4551 0.0732-0.83052 0.25685-0.97096 0.47502-1.8098 0.46185-2.6189-0.0412l-0.60343-0.37512-0.64867 0.35133c-0.79744 0.4319-1.951 0.56258-2.8178 0.31917z"/><path id="bush2" d="m131.49 143.05c-0.20918-0.0542-0.5715-0.24438-0.80517-0.42259-0.50292-0.38359-0.65934-0.39248-1.6215-0.0922-0.80138 0.25011-1.1297 0.19712-1.619-0.26126-0.48625-0.4555-0.28895-1.1109 0.38901-1.2922 0.49794-0.13316 0.53662-0.37353 0.075-0.46587-0.20964-0.0419-0.46161-0.19109-0.55993-0.33147-0.26253-0.3748-0.22685-1.2556 0.0676-1.6691 0.70441-0.98926 2.2338-1.165 2.5647-0.29474 0.12513 0.32914 0.53508 0.40391 0.69317 0.12642 0.0537-0.0943 0.235-0.19218 0.40288-0.21757 0.2841-0.043 0.2696-0.065-0.20959-0.31739-0.77424-0.40788-0.95201-0.90193-0.58197-1.6175 0.18515-0.35805 0.73773-0.7286 1.0865-0.7286 0.10173 0 0.37268 0.16484 0.60215 0.36629 0.47011 0.41274 0.76469 0.48426 0.62872 0.15262-0.0482-0.11752-0.11488-0.43598-0.14823-0.70767-0.0504-0.41095-5e-3 -0.56067 0.27305-0.89055 0.90195-1.0719 2.4528-1.1672 3.2157-0.19751 0.13641 0.17342 0.31085 0.50569 0.38766 0.73839 0.11954 0.36224 0.10361 0.49217-0.11082 0.90357-0.30811 0.59112-0.17459 0.69809 0.46444 0.37208 0.95482-0.48712 1.9458-0.24603 2.204 0.53619 0.14722 0.44606 0.072 0.75813-0.26089 1.0817-0.2202 0.2141-0.31366 0.70108-0.13308 0.69341 0.0504-2e-3 0.19823-0.0845 0.32859-0.18315 0.33998-0.25715 1.2729-0.22548 1.7396 0.059 0.37338 0.22766 0.64603 0.80953 0.64783 1.3825 2.6e-4 0.12585 0.23116 0.35589 0.55051 0.54879 0.81554 0.49262 0.99545 1.2671 0.44304 1.9074-0.57044 0.66116-2.25 0.9186-2.8604 0.43841l-0.31323-0.2464-0.71053 0.32715c-1.023 0.47103-2.0075 0.47191-2.717 2e-3l-0.52345-0.34641-0.72601 0.3258c-0.78006 0.35007-2.1543 0.50366-2.863 0.31999z"/><path id="tronco" d="m154.82 142.79c-0.0439-0.0711 0.0668-0.34097 0.24614-0.59972 0.19751-0.28501 0.31038-0.59198 0.28635-0.77872l-0.0397-0.30823-1.3384 0.59726c-0.73612 0.3285-1.3582 0.57739-1.3825 0.55313-0.0243-0.0243 0.25981-0.54826 0.63129-1.1645 1.2043-1.9976 1.472-3.0249 1.6825-6.4558 0.11224-1.829 0.11196-3.4594-1e-3 -7.2037-0.19388-6.4134-0.40788-8.725-1.0621-11.474-0.43769-1.839-0.82649-2.8995-1.8566-5.0641-0.63655-1.3376-0.87978-1.9698-0.79173-2.0578 0.088-0.088 0.49641 0.42968 1.3293 1.6854 1.292 1.9478 1.6562 2.2676 2.0893 1.8349 0.32808-0.32768 0.342-2.1939 0.0365-4.8916l-0.25815-2.2796 0.32723-0.42902c0.17998-0.23596 0.42409-0.48087 0.54249-0.54421 0.2125-0.11373 0.92889-0.0349 1.0197 0.11213 0.0257 0.0417 0.1091 0.92744 0.18521 1.9683 0.4436 6.0663 1.0274 8.9941 1.9681 9.8707 0.17012 0.15849 0.44182 0.26346 0.68196 0.26346 0.34067 0 0.44359-0.0761 0.7023-0.51892 0.38377-0.65698 1.3363-3.5454 2.2849-6.9291 1.2265-4.3748 1.1843-4.2497 1.4649-4.3388 0.14045-0.0446 0.30869-0.0277 0.37388 0.0374 0.0766 0.0766-0.14148 1.1277-0.61684 2.9731-0.40444 1.57-0.84795 3.4128-0.98556 4.0949-1.5411 7.6408-0.70376 22.962 1.5222 27.852 0.16144 0.35472 0.48807 0.88234 0.72582 1.1725 0.23777 0.29016 0.4323 0.5631 0.4323 0.60658 0 0.0435-0.71034 0.079-1.5785 0.079-1.6926 0-1.9623 0.0885-1.9623 0.64399 0 0.22968-0.0571 0.20446-0.48635-0.21466l-0.48635-0.47492-1.3146 0.63478c-0.77755 0.37546-1.6139 0.68375-2.0472 0.75466-0.96755 0.15834-2.2242 0.15404-2.3243-8e-3z"/><path id="arbol-hojas" d="m173.07 119.27c-1.3017-0.24307-2.9532-1.0727-3.9235-1.9708l-0.70542-0.65312-0.65039 0.49104c-1.8342 1.3848-4.1767 1.7219-5.2165 0.75048-0.33361-0.31165-0.37099-0.42042-0.37099-1.08 0-2.0993 1.0096-7.4151 1.9698-10.371 0.13633-0.4197 0.29162-0.7631 0.34511-0.7631 0.0535 0 0.29448 0.0824 0.53557 0.18314 0.77342 0.32316 2.2776 0.15607 2.2776-0.25298 0-0.12937-0.21934-0.16522-0.95291-0.15572-1.0419 0.0135-1.6562-0.19922-1.7638-0.61073-0.0758-0.28987-0.0279-0.35798 0.5598-0.79631 0.70624-0.5267 0.40793-0.69034-0.50863-0.279-0.39748 0.17838-0.85613 0.32433-1.0192 0.32433-0.46825 0-1.083-0.72601-1.2527-1.4793-0.15702-0.69723-0.36467-0.89325-0.47566-0.44902-0.0999 0.39991 0.0944 1.1578 0.4813 1.8775l0.33369 0.6207-0.33843 1.3939c-0.44436 1.8303-1.2808 4.7193-2.0472 7.0714-0.93328 2.8641-1.1324 3.1538-1.7268 2.5124-0.45698-0.4931-0.86414-2.1273-1.2344-4.9545-0.21567-1.6467-0.43214-4.473-0.43285-5.6512-5.3e-4 -0.81324 7e-3 -0.83274 0.41594-1.074 0.76903-0.45373 0.60621-0.94225-0.17877-0.53633-0.63872 0.3303-1.21 0.26828-1.6054-0.17431-0.41653-0.46619-0.55958-0.47551-0.65589-0.0427-0.0411 0.18467-0.0994 0.42764-0.12964 0.53996-0.0809 0.30082-0.964 1.0588-1.345 1.1544-0.18322 0.046-0.49669 0.0156-0.70513-0.0684-0.69312-0.27929-0.80263-0.29103-0.80263-0.0863 0 0.28381 0.51016 0.57239 1.1818 0.66846 0.46444 0.0664 0.61766 0.14867 0.73567 0.39483 0.17865 0.37274 0.52524 3.6782 0.52262 4.9842-2e-3 0.81715-0.13345 1.4011-0.27784 1.2308-0.15839-0.18673-1.0991-1.6512-1.5317-2.3845-0.53625-0.90894-0.60999-1.1528-0.34861-1.1528 0.24852 0 0.64536-0.33446 0.53146-0.44788-0.0561-0.0559-0.35819-0.10156-0.67134-0.10156-0.56155 0-0.57327-8e-3 -0.85544-0.5993-0.35557-0.74482-0.50223-0.58927-0.50755 0.53824-2e-3 0.4365-0.0441 0.85409-0.0934 0.92798-0.21177 0.31716-0.64795 0.421-1.4314 0.34073-0.8517-0.0873-1.0306 0.0392-0.52032 0.36777 0.40883 0.26329 1.0843 0.35141 1.4955 0.19508 0.32218-0.12249 0.39015-0.10606 0.59777 0.14452 0.95312 1.1504 3.131 7.2117 2.8522 7.9379-0.0363 0.0947-0.40931 0.35507-0.82882 0.57866-0.64809 0.34544-0.92254 0.41566-1.8254 0.46714-2.8276 0.16122-4.9437-0.84919-5.4371-2.5962-0.11384-0.40293-0.26987-0.79358-0.3467-0.86809-0.0768-0.0745-0.73405-0.1975-1.4605-0.27326-2.6274-0.27405-4.7352-1.2411-6.4073-2.9398l-1.0126-1.0287-0.36991 0.44875c-0.49863 0.60494-1.0377 0.62394-1.5177 0.0535-0.32673-0.38829-0.3312-0.41607-0.25443-1.5873 0.043-0.65563 0.0485-1.192 0.0124-1.192s-0.33678 0.13736-0.66809 0.30524c-0.60393 0.30604-0.97677 0.38677-0.97677 0.21149 0-0.0516 0.13736-0.29591 0.30524-0.54297 0.42912-0.6315 0.40333-0.93704-0.0874-1.0352-0.47458-0.0949-1.4321-1.0156-1.794-1.7251-0.14044-0.27526-0.31761-0.91912-0.3937-1.4308-0.35224-2.3682 0.72122-4.6069 2.7199-5.6721 0.60473-0.32231 0.94775-0.41846 1.6547-0.46384l0.8919-0.05724v-2.5326c0-3.299 0.12081-3.6377 1.9886-5.5768 0.53617-0.55662 0.81078-0.93132 0.75212-1.0263-0.0508-0.08222-0.38607-0.55882-0.745-1.0591-0.48199-0.6718-0.65264-1.018-0.65264-1.3241 0-0.43317 0.0857-0.4836 0.72357-0.4255 0.43502 0.03963 0.94339 0.33319 1.5579 0.89962 0.64965 0.59882 0.68214 0.56924 0.87536-0.79707 0.16882-1.1938 0.38666-1.587 0.84949-1.5336 0.29961 0.0346 0.61163 0.46468 0.91328 1.2589 0.0255 0.06715 0.43137-0.13359 0.9019-0.44611 1.6699-1.1091 2.8932-1.5877 4.8011-1.8786 1.3842-0.21106 2.5903-0.21484 4.1251-0.01291 0.62346 0.08203 1.1878 0.1156 1.2541 0.07461 0.0663-0.04099 0.30548-0.60546 0.53143-1.2544 0.65293-1.8751 1.4571-2.9263 3.0167-3.9438 1.3732-0.89574 1.8828-1.0415 3.893-1.114 2.1455-0.07728 3.2139 0.07083 4.2296 0.58636 0.85179 0.43235 1.5234 1.0337 2.2438 2.0088 0.2717 0.36777 0.53345 0.66716 0.58171 0.66531 0.0482-0.0019 0.30749-0.33575 0.57612-0.74201 0.51178-0.77403 1.0727-1.2765 1.2812-1.1476 0.22802 0.14092 0.12816 1.0361-0.18437 1.6529-0.3629 0.71611-0.31461 0.73648 0.83007 0.3502 1.9092-0.64428 2.9559 0.34999 1.7109 1.625-0.24606 0.25199-0.42349 0.47886-0.39428 0.50418 0.0292 0.02529 0.46519 0.16811 0.96884 0.31736 1.5722 0.46587 2.6073 1.216 3.4319 2.4869 1.2514 1.929 1.6635 5.2784 0.97141 7.8948-0.18402 0.69569-0.20628 0.93402-0.0939 1.0054 0.081 0.05149 0.78239 0.09446 1.5586 0.09548 1.3933 0.0019 1.4206 0.0073 2.1367 0.43068 2.378 1.4057 3.3305 4.5481 2.3048 7.6038-0.3901 1.1621-0.92513 2.0547-1.8312 3.0551-0.3838 0.4238-0.64899 0.81406-0.58928 0.86721 0.0597 0.0532 0.37401 0.16809 0.69844 0.2554 0.80893 0.21769 1.9031 0.95201 2.3219 1.5583 1.0406 1.5063 1.0217 3.4356-0.0549 5.6088-0.92235 1.862-2.9003 3.6531-4.9164 4.4524-0.96255 0.38153-1.0544 0.39436-3.0075 0.41992-1.108 0.0145-2.152 7.9e-4 -2.3199-0.0306z"/><path id="chimenea" d="m121.12 84.422c-1.252-0.98987-2.3707-1.9293-6.7841-5.6975l-3.6144-3.0858-0.0758-1.0074c-0.0417-0.55408-0.11352-3.2189-0.15961-5.9218-0.0836-4.9006-0.0831-4.9143 0.16657-4.9143 0.58075 0 13.46 1.7728 13.527 1.8619 0.048 0.06445-1.4688 15.451-1.7242 17.491-0.2848 2.2742-0.18777 2.1816-1.3352 1.2744zm0.2823-2.0986c-0.0264-0.08394-0.30262-0.23504-0.6138-0.33578l-0.5658-0.18314 0.0722-1.5995c0.0497-1.1017 0.0305-1.6252-0.0618-1.6823-0.23181-0.14327-0.35745 0.31273-0.41756 1.5155-0.06 1.2005-0.21587 1.7052-0.5266 1.7052-0.3067 0-0.19569 0.33014 0.15692 0.46672 0.75408 0.2921 2.036 0.36628 1.9564 0.11324zm1.2486-3.9856c0-0.17519-0.29424-0.25271-2.8548-0.75215-1.3352-0.26041-2.4434-0.48926-2.4626-0.50852-0.0759-0.07595 0.10786-2.5275 0.20078-2.6778 0.0807-0.13053 0.45662-0.10901 2.0279 0.1161 2.0715 0.29675 2.7225 0.33406 2.7225 0.15594 0-0.06195-0.17857-0.17004-0.39682-0.2402-0.79718-0.25629-8.6036-1.4786-9.4434-1.4786-0.2288 0-0.416 0.05283-0.416 0.11739 0 0.15882 0.5756 0.29879 2.8083 0.68291 1.0409 0.17908 1.937 0.38819 1.9915 0.46471 0.10643 0.14962 0.0331 2.6118-0.0812 2.726-0.0378 0.03783-0.67982-0.02532-1.4266-0.14031-1.3624-0.2098-1.7056-0.18068-1.3069 0.11086 0.2522 0.18442 0.68497 0.27868 4.4862 0.97707 2.8228 0.51863 4.1513 0.66158 4.1513 0.44666zm-0.73445-1.7763c-1e-3 -0.20542-0.056-0.4559-0.1221-0.55662-0.10687-0.1628-0.13359-0.1628-0.24046 0-0.13954 0.21257-0.16563 1.1386-0.0357 1.2685 0.1451 0.14511 0.40031-0.31101 0.3983-0.71188zm-9.3508-0.82713c0.12942-0.51278 0.0325-0.85187-0.21627-0.75643-0.22513 0.08639-0.34834 0.56975-0.24759 0.97122 0.10542 0.42005 0.32988 0.31612 0.46386-0.21478zm-1.4529-2.5377c0-0.33464-0.27188-0.4732-0.3793-0.1933-0.10105 0.26335 0.0396 0.59144 0.22674 0.52905 0.0839-0.02797 0.15256-0.17906 0.15256-0.33575z"/></g></g><g id="layer1" transform="translate(-5.4202 -20.104)"><path id="path4" d="m40.848 144.02c-0.65814-0.34411-0.89057-0.37362-1.4504-0.18416-1.4139 0.47855-2.8122-0.2859-2.5459-1.3919 0.17301-0.71853 0.17412-0.98852 0.0082-2.0001-0.10993-0.67027-0.0528-0.9234 0.31698-1.4045 0.52993-0.68947 1.6471-1.2212 2.1926-1.0436 0.32299 0.10513 0.384 0.0239 0.384-0.51129 0-0.89057 0.76992-1.6397 1.6851-1.6397 0.4783 0 0.70667-0.094 0.70667-0.29089 0-0.48333 1.1683-1.5249 1.8596-1.6579 0.61018-0.11739 0.64324-0.16791 0.5642-0.8622-0.18153-1.5946 1.4811-3.109 3.1201-2.8419 0.76534 0.12472 1.8308 1.0967 1.8308 1.6702 0 0.21829 0.22638 0.30338 0.80717 0.30338 1.0314 0 1.9439 0.48345 2.0976 1.1113 0.11237 0.45915 0.18733 0.48356 1.1667 0.37989 1.876-0.19857 3.3008 0.93523 3.3025 2.628 6.4e-4 0.641 0.08309 0.77596 0.58325 0.95478 0.80636 0.28827 1.1014 0.90997 0.82198 1.732-0.18978 0.5583-0.16616 0.68668 0.17591 0.95645 0.21731 0.17137 0.48309 0.54155 0.59063 0.82261 0.12971 0.33901 0.19977-7.2808 0.20815-22.638l0.01263-23.149h-4.2853c-2.5026 0-4.2853-0.07892-4.2853-0.1897 0-0.20801 41.033-34.764 41.28-34.764 0.08389 0 4.1515 3.4034 9.0391 7.563 4.8876 4.1597 8.9392 7.563 9.0036 7.563 0.0643 0 0.0505-2.5943-0.0308-5.765-0.11395-4.4451-0.2102-5.829-0.4204-6.0446-0.37619-0.38579-0.35261-1.9719 0.0342-2.3011 0.55739-0.4744 8.8193 0.076 14.021 0.93405 1.0286 0.16968 1.948 0.35781 2.043 0.41806 0.44798 0.28393-0.10815 3.0857-0.64732 3.2612-0.43544 0.14173-0.37836-0.2912-1.3736 10.417-0.43883 4.7218-0.84544 8.879-0.90358 9.2381-0.10347 0.63927 4e-3 0.74633 5.0835 5.0722 2.8541 2.4305 5.1892 4.5052 5.1892 4.6104 0 0.11298-1.7951 0.19128-4.385 0.19128h-4.385v47.016l-65.127-0.1046-0.31933 0.57062c-0.17563 0.31383-0.64875 0.71177-1.0514 0.88429-0.69034 0.29581-0.99589 0.30144-3.8613 0.0711-0.59722-0.048-1.7128 0.15258-2.1339 0.38367-0.52734 0.28943-1.945 0.30959-2.4457 0.0348-0.26092-0.14321-0.53198-0.1139-0.93365 0.10094-0.74738 0.39976-2.254 0.38913-2.8235-0.0199-0.41388-0.29729-0.50998-0.29729-1.1209 0-0.9403 0.4576-2.6389 0.41767-3.5996-0.0846zm3.6519-0.41339 0.66025-0.41282 0.5127 0.41359c0.67891 0.54766 1.9457 0.54174 2.8334-0.0132 0.60713-0.37958 0.69927-0.39049 0.857-0.10144 0.12358 0.22646 0.4689 0.32387 1.1481 0.32387 1.2963 0 2.2495-0.75675 2.1587-1.7137-0.04643-0.48907-0.20988-0.70816-0.70394-0.94358-0.49423-0.2355-0.64447-0.43698-0.64778-0.86873-0.0062-0.81164-0.64813-1.3797-1.559-1.3797-0.41657 0-0.86504 0.11038-0.99659 0.24529-0.18603 0.19078-0.23918 0.19078-0.23918 0 0-0.13491-0.22423-0.24529-0.49829-0.24529-0.64598 0-0.65609 0.52828-0.01328 0.69374-0.0028 2.0476-0.58452 1.4755-0.68433-0.28739 0-0.54475 0.0613-0.5918 0.8471-0.65011 0.78929-0.0586 0.85126-0.10685 0.90813-0.70754 0.10597-1.1194-1.2974-1.7055-2.3217-0.96971-0.49414 0.35494-0.8511 0.22693-0.46664-0.16735 0.36312-0.37239 0.28017-1.2736-0.17141-1.8624-0.54472-0.71019-1.6146-0.90977-2.5153-0.46925-0.80851 0.3954-1.3381 1.4413-1.0294 2.0329 0.29316 0.56176-0.02966 0.72324-0.37938 0.18977-0.37504-0.57209-1.1176-0.59512-1.6481-0.0511-0.66233 0.67924-0.14659 2.6189 0.40565 2.0441 0.37521-0.39057-0.44395 0.61-0.75937 0.21053-1.0581-1.3401-3.5768 0.34841-2.8753 1.9275 0.1363 0.30679 0.39555 0.51925 0.6336 0.51925 0.2216 0 0.40291 0.092 0.40291 0.20441 0 0.11242-0.1684 0.2044-0.37423 0.2044-0.47457 0-0.87491 0.4854-0.78689 0.95409 0.03723 0.19828 0.31172 0.50096 0.60996 0.67264 0.49311 0.28384 0.63582 0.27805 1.5744-0.0638 0.95655-0.34841 1.0457-0.35109 1.2174-0.0366 0.44182 0.80964 2.8005 0.99574 3.9008 0.30777zm2.3936-4.9002c-46.894-138.71-46.894-138.71 0 0zm11.018 4.2349c0.53283-0.36701 0.69034-0.6267 0.73862-1.2178 0.09011-1.1034-0.23405-1.5862-1.065-1.5862-0.37983 0-0.6906-0.0389-0.6906-0.0865s0.26908-0.36243 0.59795-0.6997c1.0271-1.0533 0.62098-1.8208-0.83696-1.5817-0.80622 0.13221-0.82324 0.1238-0.49721-0.24565 0.43259-0.49021 0.43948-1.8477 0.01256-2.4728-0.72448-1.0608-2.7471-1.3888-3.5413-0.57439-0.25288 0.25934-0.50561 0.60428-0.5616 0.76652-0.056 0.16225-0.17797 0.22183-0.27105 0.1324-0.09308-0.0894-0.06051-0.34114 0.07237-0.55935 0.39291-0.6452 0.2965-1.5661-0.20138-1.9238-0.69147-0.49669-2.0345-0.41742-2.401 0.14172-0.16582 0.25295-0.37259 0.38939-0.45949 0.3032-0.08689-0.0862-0.05185-0.26556 0.07787-0.39859 0.44362-0.45495 0.26972-1.321-0.37739-1.8794-0.70906-0.61186-1.3392-0.66517-2.3053-0.19501-0.77483 0.37707-1.2671 1.191-1.2671 2.095 0 0.48988 0.16664 0.72439 0.8471 1.1921 0.61599 0.42336 0.89597 0.78322 1.0262 1.319 0.16595 0.6826 0.2435 0.74423 1.0545 0.83797 1.1157 0.12897 1.6565 0.62188 1.6565 1.5099 0 0.62571 0.05152 0.68375 0.60701 0.68375 0.72705 0 1.582 0.79027 1.5932 1.4726 0.0049 0.30021 0.23823 0.6195 0.64778 0.88648 0.57648 0.3758 0.63886 0.51294 0.62758 1.3797-0.01349 1.0364 0.14985 1.158 0.8651 0.64428 0.41439-0.29766 0.46933-0.29252 0.42596 0.0398-0.0394 0.30193 0.59156 0.4767 1.7316 0.47964 0.93911 2e-3 1.3706-0.10317 1.8935-0.46337zm35.059-22.633v-21.464l25.612 0.1052 0.0508 21.412 0.0507 21.412h5.1804v-46.605h-64.18v46.605h33.286zm-29.208 7.7179c-0.05249-0.14053-0.0721-4.8547-0.04357-10.476l0.05186-10.22 21.028-0.1058v21.057h-10.47c-8.1926 0-10.491-0.0556-10.566-0.2555zm20.638-10.271v-10.118h-20.33v20.236h20.33zm-19.642 9.2482c-0.05442-0.14543-0.07467-2.2398-0.04502-4.6541l0.05392-4.3897h9.1686v9.1983l-4.5393 0.0549c-3.568 0.0432-4.5605-2e-3 -4.6382-0.20946zm8.8785-1.9918c0-0.9539-0.08305-1.6352-0.19932-1.6352-0.10962 0-0.19932-0.18397-0.19932-0.40882 0-0.3022-0.14201-1.7886 0.04983-1.9142 0.27134-0.17755 0.3488-0.51238 0.3488-1.5077v-1.2795h-8.5706v8.3807h8.5706zm-0.39863-3.2074c-0.92872-1.8665 0 0 0 0zm1.2867 5.1991c-0.05442-0.14543-0.07467-2.2398-0.04501-4.6541l0.05392-4.3897h9.1686v9.1983l-4.5393 0.0549c-3.568 0.0432-4.5605-2e-3 -4.6382-0.20946zm8.8785-4.5468v-4.1903h-8.5706v8.3807h8.5706zm-18.645-5.2647c-0.05442-0.14543-0.07467-2.2398-0.04502-4.6541l0.05392-4.3897h9.1686v9.1983l-4.5393 0.0549c-3.568 0.0432-4.5605-2e-3 -4.6382-0.20946zm8.8785-4.5468v-4.1903h-8.5706v8.3807h8.5706zm-8.1222 0.57452c-65.515-113.22-65.515-113.22 0 0zm9.0102 3.9723c-0.05442-0.14543-0.07467-2.2398-0.04501-4.6541l0.05392-4.3897h9.1686v9.1983l-4.5393 0.0549c-3.568 0.0432-4.5605-2e-3 -4.6382-0.20946zm8.8785-4.5468v-4.1903h-8.5706v8.3807h8.5706zm10.962 8.6873v-20.441h22.521l0.1016 40.779h1.1959l0.1016-42.414h-24.917v42.517h0.99659zm22.124 0.1022v-20.134h-21.726v40.268h21.726zm-20.53 2.1462c-0.56127-0.5756-0.51332-1.5362 0.10852-2.1739 0.29915-0.30679 0.63283-0.47065 0.81357-0.39952 0.16853 0.0663 0.43155 0.12058 0.58449 0.12058 0.44834 0 0.94554 0.95217 0.80246 1.5368-0.2982 1.2185-1.5355 1.7094-2.3091 0.91612zm1.7872-0.66256c0.22376-0.41024 0.24969-0.65134 0.09677-0.90003-0.57758-0.93933-1.884-0.5635-1.884 0.54199 0 1.0968 1.2479 1.3468 1.7872 0.35804zm1.2232-7.386c-0.15961-0.19723-0.21148-1.7062-0.17389-5.0591l0.05356-4.778 5.9795-0.0572c3.2887-0.0315 6.183-6e-3 6.4316 0.0559l0.45206 0.11316-0.0534 4.8498c-0.0389 3.5275-0.11683 4.8498-0.28596 4.8498-0.1279 0-0.29981 0.069-0.38203 0.15331-0.0822 0.0843-2.7695 0.1533-5.9717 0.1533-4.697 0-5.8662-0.0543-6.0497-0.28107zm12.138-0.94537c0-0.54508-0.0831-0.80059-0.24915-0.76652-0.19015 0.039-0.24914-0.6507-0.24914-2.9128s0.059-2.9518 0.24914-2.9128c0.17302 0.0355 0.24434-0.24556 0.23341-0.91983-9e-3 -0.53402-0.061-0.85596-0.11626-0.71543-0.12826 0.32597-11.03 0.37648-11.03 0.0511 0-0.11243-0.17939-0.20441-0.39864-0.20441-0.38682 0-0.39864 0.13627-0.39864 4.5992v4.5992h11.959zm-11.46 0.41058c-0.06929-0.11498-0.0069-0.25595 0.13876-0.31325 0.51192-0.20146 11.022-2e-3 11.022 0.20928 0 0.28471-10.99 0.38709-11.161 0.10397zm-0.10072-4.2943c0-1.7715 0.07593-2.8617 0.19932-2.8617s0.19932 1.0902 0.19932 2.8617-0.07593 2.8617-0.19932 2.8617-0.19932-1.0902-0.19932-2.8617zm32.482-16.225c-0.16052-0.15466-5.5389-4.7346-11.952-10.178-10.288-8.7317-21.568-18.323-26.447-22.488l-1.6319-1.3929-20.094 16.884c-11.052 9.2863-20.179 16.967-20.284 17.068-0.11296 0.10932 8.3071 0.16301 20.721 0.13211l20.911-0.05205 0.36173-1.2264c0.19895-0.67454 0.41048-1.3874 0.47007-1.5842 0.10258-0.3387-0.77168-0.35771-16.448-0.35771-13.118 0-16.555-0.05307-16.547-0.25551 0.01375-0.36965 30.639-26.013 31.05-25.999 0.4263 0.01413 30.922 25.869 30.848 26.153-0.0356 0.13481-4.9044 0.17678-14.3 0.12327l-14.246-0.08114-0.437 1.512c-0.24035 0.83159-0.43671 1.5802-0.43636 1.6635 3.47e-4 0.08332 4.7319 0.17614 10.515 0.20625 5.7827 0.03011 14.502 0.07692 19.376 0.10401 7.529 0.04184 8.8186 0.0069 8.5706-0.23194zm-10.263-3.9823c-0.2162-0.20888-6.9688-5.9642-15.006-12.79-10.127-8.6006-14.685-12.352-14.849-12.221-1.4909 1.191-30.034 25.237-30.034 25.302 0 0.04863 13.564 0.08842 30.141 0.08842 29.381 0 30.131-0.0096 29.748-0.37978zm1.43-13.946c0.45465-4.7686 0.87796-9.1856 0.94069-9.8155l0.11406-1.1452-6.8742-0.98006c-3.7808-0.53903-6.9236-0.92936-6.9841-0.8674-0.0604 0.06196-0.0363 2.7583 0.0537 5.9919l0.16357 5.8792 5.6805 4.8585c3.1243 2.6722 5.7702 4.8338 5.8798 4.8036 0.1118-0.03079 0.56211-3.8607 1.0259-8.7252zm-3.3021 5.7646c-0.37498-0.06952-0.71882-0.24144-0.7641-0.38204-0.0497-0.1544 0.0319-0.21068 0.2062-0.1421 0.34079 0.13411 0.54205-0.67191 0.54205-2.1708 0-0.54143 0.0994-1.0474 0.2208-1.1244 0.15698-0.09949 0.20019 0.36824 0.14949 1.6182l-0.0713 1.7582 0.54584 0.12291c0.30021 0.0676 0.597 0.20781 0.65954 0.31159 0.12335 0.20468-0.41371 0.20773-1.4885 0.0085zm1.1801-4.0184c-0.71256-0.13944-2.5262-0.46344-4.0303-0.72002-2.5749-0.43923-3.3589-0.6579-3.1394-0.87561 0.0516-0.05122 0.73738 0.02081 1.5239 0.16005l1.43 0.25317 0.0649-1.4487c0.0357-0.79679-6e-3 -1.5024-0.0924-1.568-0.0865-0.06559-1.1576-0.27479-2.3801-0.4649-2.21-0.34368-2.5178-0.43194-2.2967-0.65869 0.13115-0.1345 9.2103 1.2742 9.8049 1.5213 0.84856 0.35266-0.10173 0.3569-2.1759 0.0097-1.6705-0.27962-2.2237-0.30867-2.3389-0.12279-0.083 0.1339-0.15231 0.81183-0.15399 1.5065l-3e-3 1.263 1.0464 0.21334c0.57553 0.11734 1.6743 0.31901 2.4416 0.44816 0.76737 0.12915 1.5189 0.30289 1.67 0.38608 0.54478 0.29994-0.10119 0.3458-1.371 0.09733zm0.39863-1.6149c0-0.40012 0.0897-0.72749 0.19932-0.72749s0.19932 0.27052 0.19932 0.60116-0.0897 0.658-0.19932 0.72749c-0.11862 0.07518-0.19932-0.16822-0.19932-0.60116zm-9.2184-0.43667c-0.21124-0.21839-0.18596-1.0612 0.0361-1.2019 0.27194-0.17236 0.35673 0.11706 0.22736 0.77607-0.0627 0.31921-0.1812 0.51085-0.26342 0.42585zm-1.5447-3.0503c0-0.16864 0.0897-0.30661 0.19932-0.30661 0.10963 0 0.19932 0.13798 0.19932 0.30661 0 0.16864-0.0897 0.30661-0.19932 0.30661s-0.19932-0.13797-0.19932-0.30661zm14.527-8.7778c0.39913-1.6256 0.36952-1.6814-1.0228-1.9266-3.5516-0.62559-11.511-1.3499-13.404-1.2197-0.97098 0.06676-0.99824 0.08625-1.0609 0.75883-0.0354 0.37967 0.0268 0.78379 0.13821 0.89805s3.5038 0.68934 7.5388 1.278c4.0349 0.58863 7.3928 1.0813 7.462 1.0949 0.0692 0.01358 0.22617-0.38398 0.34881-0.88346zm5.503 78.786c-0.66017-0.34516-0.88961-0.37394-1.4552-0.18251-0.78767 0.26659-1.7567 0.112-2.2671-0.36165-0.40109-0.37224-0.48205-1.294-0.14411-1.6405 0.1575-0.16152 0.1575-0.33886 0-0.64066-0.36587-0.70111-0.25169-1.5979 0.28704-2.2545 0.53151-0.6478 1.7025-1.1677 2.1942-0.97421 0.21516 0.0847 0.29075-0.0457 0.29075-0.50167 0-0.80122 0.78425-1.6196 1.5521-1.6196 0.4443 0 0.68224-0.1728 1.0555-0.76652 0.34746-0.55272 0.73204-0.85205 1.3788-1.0731 0.87993-0.3008 0.8959-0.3221 0.84263-1.1242-0.1551-2.3356 2.8792-3.6845 4.3894-1.9513 0.30147 0.34598 0.54812 0.76559 0.54812 0.93245 0 0.2183 0.22638 0.30338 0.80717 0.30338 1.0206 0 1.9435 0.48177 2.093 1.0926 0.10622 0.43401 0.2003 0.4647 1.1713 0.38213 1.8975-0.16138 3.3009 0.96241 3.3025 2.6445 6.4e-4 0.641 0.0831 0.77597 0.58325 0.95478 0.80636 0.28827 1.1014 0.90998 0.82198 1.732-0.19071 0.56105-0.16673 0.68543 0.18458 0.95719 0.95168 0.73618 0.81298 2.5428-0.2578 3.3578-0.47294 0.35998-0.82118 0.4232-2.1925 0.39801-0.89663-0.0165-1.8096-0.0517-2.0289-0.0783-0.61925-0.0752-1.752 0.11843-2.2309 0.38126-0.52955 0.29064-1.9466 0.31161-2.4483 0.0362-0.26093-0.1432-0.53198-0.1139-0.93365 0.10095-0.73198 0.39151-1.93 0.38814-2.7434-8e-3 -0.57663-0.28062-0.70342-0.28075-1.226-1e-3 -0.84017 0.44932-2.6236 0.40166-3.5745-0.0955zm3.5752-0.40031c0.76268-0.39877 0.7706-0.39877 1.2649 0 0.642 0.5179 1.7366 0.51492 2.7356-7e-3 0.67957-0.35531 0.80357-0.36866 0.94898-0.1022 0.11297 0.20702 0.48257 0.30651 1.1386 0.30651 1.2963 0 2.2495-0.75675 2.1587-1.7137-0.0464-0.48907-0.20988-0.70817-0.70394-0.94358-0.49423-0.2355-0.64446-0.43698-0.64778-0.86873-6e-3 -0.81164-0.64813-1.3798-1.559-1.3798-0.41657 0-0.86503 0.11038-0.99658 0.24529-0.18603 0.19078-0.23918 0.17293-0.23918-0.0803 0-0.1791 0.13453-0.37857 0.29897-0.44328 0.17304-0.0681 0.29898-0.37378 0.29898-0.7257 0-1.0888-1.3766-1.6236-2.3604-0.91699-0.49414 0.35495-0.8511 0.22694-0.46664-0.16734 0.70014-0.71801-0.10774-2.3028-1.2898-2.5302-1.4048-0.27026-2.9929 1.1458-2.4506 2.185 0.31075 0.59546 0.011 0.79475-0.35517 0.23615-0.78141-1.192-2.6433 0.30555-1.8901 1.5203 0.0828 0.1335 0.39533 0.33818 0.69456 0.45486 0.6799 0.2651 0.3165 0.22225-0.0538 0.22225-0.10963 0-0.19932 0.092-0.19932 0.20441 0 0.11242-0.13454 0.20441-0.29898 0.20441-0.16443 0-0.29897-0.14026-0.29897-0.31167 0-0.40083-0.7656-0.69896-1.4503-0.56474-0.71207 0.1396-1.5395 1.0174-1.5395 1.6331 0 0.72072 0.354 1.2873 0.80428 1.2873 0.21539 0 0.39162 0.092 0.39162 0.20441 0 0.11242-0.1684 0.20441-0.37423 0.20441-0.47457 0-0.87491 0.48539-0.78689 0.95408 0.0372 0.19828 0.31244 0.50139 0.61158 0.67357 0.49258 0.28354 0.63307 0.28018 1.4894-0.0356 0.90278-0.33293 0.96372-0.33177 1.3482 0.0256 0.54615 0.50768 0.83367 0.59582 2.0049 0.61464 0.63156 0.0102 1.2891-0.13279 1.7718-0.38514zm13.489-0.67843c0.53283-0.36701 0.69035-0.62671 0.73862-1.2178 0.0901-1.1034-0.23405-1.5862-1.065-1.5862-0.37983 0-0.6906-0.0551-0.6906-0.12239 0-0.0673 0.26908-0.38018 0.59796-0.69523 0.66851-0.64044 0.70809-0.78943 0.34495-1.2987-0.28611-0.40127-0.80942-0.48353-1.5409-0.2422-0.48318 0.15943-0.48771 0.15225-0.14949-0.23656 0.44336-0.50967 0.45623-1.858 0.0238-2.4912-0.72448-1.0608-2.7471-1.3888-3.5413-0.5744-0.25289 0.25934-0.50561 0.60428-0.56161 0.76653s-0.17351 0.22639-0.26114 0.14255c-0.0876-0.0838-0.0551-0.38711 0.0724-0.67394 0.57834-1.3017-1e-3 -2.1375-1.4825-2.1375-0.63673 0-0.89799 0.10635-1.1298 0.45991-0.36211 0.55237-0.66758 0.36247-0.36123-0.22456 0.36014-0.69012 0.24534-1.1953-0.39778-1.7502-1.3874-1.1973-3.5724-0.0834-3.5724 1.8212 0 0.61849 0.10728 0.79442 0.7049 1.156 0.68728 0.41586 1.2883 1.2899 1.2883 1.8736 0 0.19325 0.30647 0.32561 0.91747 0.39623 1.0688 0.12354 1.4635 0.45813 1.6513 1.3995 0.11363 0.56976 0.24681 0.7033 0.82164 0.82386 0.78717 0.16511 1.3932 0.82376 1.3932 1.5142 0 0.29715 0.15103 0.52375 0.40395 0.60608 0.6442 0.20968 1.0581 1.0298 0.9296 1.8419-0.12663 0.80024 0.0974 0.90841 0.81459 0.39326 0.41439-0.29766 0.46934-0.29252 0.42596 0.0398-0.0394 0.30193 0.59156 0.4767 1.7316 0.47964 0.93911 2e-3 1.3706-0.10317 1.8935-0.46336zm6.4953 1.0709c-0.33649-0.21425-0.33904-0.26386-0.0378-0.73534l0.32302-0.50558-0.58905 0.31239c-0.75583 0.40083-2.2254 0.64997-2.2254 0.37727 0-0.11191 0.38323-0.79054 0.85163-1.5081 0.95409-1.4616 1.4416-2.8307 1.7684-4.967 0.38425-2.5114-0.0736-17.186-0.55185-17.687-0.048-0.0503-0.3486 0.0669-0.668 0.26035-0.9559 0.57908-2.6172 0.80208-4.025 0.54028-2.2558-0.4195-3.5925-1.3862-4.09-2.9576-0.18455-0.58301-0.26326-0.62038-1.5975-0.75847-2.3563-0.24388-5.1386-1.5264-6.5205-3.0056-0.52503-0.56201-0.60638-0.58798-0.98641-0.315-1.1093 0.79684-2.3187-0.10127-2.3187-1.722 0-0.8175-9e-3 -0.82846-0.53281-0.62436-0.41662 0.16244-0.6013 0.13752-0.84682-0.11428-0.28579-0.29309-0.28398-0.37566 0.0202-0.91913 0.31716-0.56673 0.3154-0.60321-0.0346-0.71714-0.5972-0.19438-1.7514-1.6459-1.9799-2.4899-0.54449-2.0109-0.0987-4.3191 1.115-5.7733 0.75164-0.90055 2.3405-1.8532 3.0994-1.8584 0.84695-0.0058 0.97461-0.23509 0.76427-1.3725-0.41597-2.2494 0.49883-5.1238 2.087-6.5574l0.87889-0.79338-0.5865-0.57625c-1.1596-1.1393-1.2088-2.7573-0.084-2.7573 0.69132 0 1.8014 0.50522 2.0298 0.92383 0.15171 0.27802 0.21295 0.17649 0.30139-0.49965 0.16876-1.2903 0.63415-1.8925 1.4035-1.8159 0.45769 0.04555 0.70476 0.21503 0.888 0.60911l0.25387 0.54599 0.96048-0.66286c1.6301-1.125 3.5556-1.6356 6.2076-1.6463 1.261-0.0051 2.5358 0.06055 2.8327 0.14586 0.50647 0.14548 0.55414 0.10116 0.76824-0.71427 0.66127-2.5185 2.4394-4.3222 5.2038-5.279 1.0606-0.36705 1.5947-0.42284 3.3542-0.35032 2.5652 0.10571 3.8988 0.64019 5.0842 2.0376l0.77542 0.91416 0.7267-0.78343c0.79299-0.85489 1.1855-0.96028 1.6815-0.45153 0.22348 0.22919 0.28467 0.51383 0.19772 0.91983-0.12581 0.58742-0.12504 0.58793 0.8865 0.58793 1.6282 0 2.4146 1.2061 1.4835 2.275-0.26104 0.29968-0.22202 0.34631 0.38798 0.46366 1.6435 0.3162 3.3846 2.1402 4.1733 4.372 0.55121 1.5598 0.7 4.5245 0.29771 5.9318l-0.29613 1.036h1.2635c2.0691 0 3.6499 1.0834 4.6727 3.2025 0.42383 0.8781 0.48779 1.2863 0.47904 3.0575-9e-3 1.7522-0.0837 2.2083-0.52539 3.1939-0.28341 0.63239-0.84231 1.521-1.242 1.9747l-0.7267 0.82491 0.73562 0.24898c0.40459 0.13693 1.1164 0.63944 1.5817 1.1167 3.2452 3.3281-0.26972 10.203-5.8964 11.532-2.9186 0.68971-7.1254-0.28348-8.6389-1.9985l-0.37227-0.42186-0.63776 0.49886c-1.4579 1.1404-4.0071 1.4872-5.2445 0.71354l-0.64778-0.40505v3.2378c0 3.5082 0.22855 7.0478 0.71441 11.065 0.53802 4.4479 1.2118 6.7484 2.4056 8.2138 0.66593 0.81743 0.68313 0.87611 0.33565 1.1452-0.26195 0.20284-0.77385 0.25844-1.7974 0.19526-1.3678-0.0844-1.4364-0.0671-1.5485 0.39107-0.14343 0.58608-0.49401 0.6084-1.1569 0.0737l-0.50298-0.40574-1.1934 0.63119c-0.97878 0.51768-1.4935 0.64727-2.8625 0.72064-1.0401 0.0557-1.8051 3e-3 -2.0299-0.1403zm4.8483-1.0607 1.3687-0.72015 0.91899 1.0032 0.11188-0.4755c0.10819-0.4598 0.16909-0.47308 1.8445-0.40238 0.99072 0.0418 1.7326-9e-3 1.7326-0.11767 0-0.10494-0.22346-0.40609-0.49659-0.66923-2.5574-2.4639-3.9645-19.08-2.3939-28.268 0.15787-0.92353 0.64858-3.0287 1.0905-4.6782s0.80342-3.0522 0.80342-3.1172-0.2037-0.11816-0.45267-0.11816c-0.4041 0-0.50325 0.20289-0.92393 1.8908-0.72946 2.9268-2.1856 7.7021-2.7114 8.8917-0.39336 0.89003-0.56168 1.0731-0.98653 1.0731-1.2461 0-2.0848-3.1434-2.4698-9.257-0.0976-1.55-0.21151-2.8478-0.25311-2.884s-0.29987-0.11666-0.57394-0.17876c-0.38473-0.0872-0.60256 0.021-0.95584 0.47474l-0.45755 0.58766 0.31795 2.8133c0.33073 2.9265 0.26103 4.3049-0.22741 4.4972-0.42619 0.16772-0.96923-0.43493-2.1082-2.3396-0.78683-1.3158-1.0633-1.6387-1.1956-1.3963-0.11924 0.21851 0.0721 0.77162 0.62312 1.8016 2.3067 4.3117 2.9842 8.2142 3.1502 18.145 0.13417 8.0295-0.14332 9.9848-1.769 12.465-0.40525 0.61827-0.703 1.1588-0.66166 1.2012 0.0413 0.0424 0.67266-0.20966 1.4029-0.56012 0.73027-0.35047 1.3625-0.63721 1.405-0.63721 0.24547 0 0.0161 0.811-0.31665 1.1199-0.63835 0.59244-0.27077 0.77794 1.3324 0.67242 1.1878-0.0782 1.7549-0.24082 2.8514-0.81774zm18.464-22.927c2.4458-0.66784 4.7367-2.5771 5.8333-4.8615 1.6465-3.43 0.55202-6.411-2.6435-7.1998l-0.56734-0.14004 0.93008-1.0197c3.008-3.2979 2.7149-8.5345-0.58874-10.52-0.81275-0.48846-1.0688-0.53856-2.4002-0.46961-0.92973 0.04815-1.4896-0.0012-1.4882-0.1312 1e-3 -0.11461 0.13573-0.65992 0.29898-1.2118 0.38412-1.2985 0.37879-3.5952-0.0119-5.1369-0.67876-2.6784-2.107-4.312-4.3223-4.9436l-1.1974-0.3414 0.5224-0.46082c0.55223-0.48714 0.68295-1.2561 0.28322-1.666-0.33821-0.34684-1.6624-0.30435-2.3804 0.07639-0.6684 0.35447-0.95689 0.25918-0.58957-0.19473 0.35287-0.43604 0.59661-1.4669 0.41722-1.7646-0.24528-0.40699-0.73735-0.09461-1.4235 0.90368l-0.6285 0.91442-0.5408-0.75454c-0.78524-1.0956-1.3706-1.5948-2.4908-2.1243-0.86336-0.4081-1.3087-0.46959-3.3859-0.46757-2.0283 2e-3 -2.5347 0.06967-3.3319 0.44541-2.3619 1.1131-3.6622 2.5719-4.3034 4.8276-0.32748 1.1522-0.35504 1.184-0.93537 1.0788-3.6214-0.65636-7.0646-0.05829-9.4819 1.647-0.55974 0.39486-1.0423 0.68778-1.0724 0.65094-0.0301-0.03685-0.14122-0.34294-0.24703-0.68021-0.21592-0.6882-0.8515-0.9104-1.238-0.4328-0.13457 0.1663-0.29624 0.81462-0.35925 1.4407-0.063 0.6261-0.1778 1.1384-0.2551 1.1384s-0.31119-0.19338-0.51977-0.42974c-0.78766-0.89258-2.173-1.3036-2.3949-0.71047-0.12984 0.34699 0.16846 0.96792 0.96664 2.0122l0.58838 0.76979-0.99331 0.96767c-0.54632 0.53222-1.2053 1.3816-1.4643 1.8875-0.42492 0.82982-0.47038 1.1749-0.4646 3.526l6e-3 2.6062h-0.79059c-1.5904 0-3.3133 1.317-4.1274 3.1549-0.49132 1.1094-0.49237 3.2076-2e-3 4.3144 0.3801 0.85814 1.4485 1.9334 1.921 1.9334 0.49696 0 0.5422 0.43289 0.0961 0.91983-0.66169 0.72232-0.32956 0.99628 0.61116 0.50411l0.78878-0.41268-0.12877 1.1236c-0.0995 0.86807-0.0537 1.2412 0.20155 1.6406 0.42395 0.66355 1.1682 0.67428 1.6669 0.024l0.37813-0.49299 0.81359 0.96864c1.4103 1.679 4.6158 3.0726 7.0858 3.0804 0.97597 3e-3 1.0028 0.0263 1.2228 1.0604 0.3339 1.5694 2.3057 2.6366 4.9034 2.6541 1.1687 8e-3 1.717-0.0897 2.3423-0.41684 0.44899-0.23491 0.87118-0.51809 0.93819-0.62929 0.27034-0.44858-0.74202-3.8741-1.8047-6.1066-0.91232-1.9166-1.1613-2.29-1.4405-2.1604-0.554 0.25707-1.4415 0.16246-1.7855-0.19032-0.29635-0.30391-0.24318-0.32058 0.66926-0.20975 1.2377 0.15033 1.5781-0.18083 1.5229-1.4814-0.0448-1.0555 0.089-1.1456 0.38934-0.26213 0.19665 0.57851 0.27611 0.62546 0.88656 0.52387 0.72344-0.1204 0.95447 0.23365 0.27192 0.4167-0.21925 0.0588-0.39864 0.15379-0.39864 0.21109 0 0.22661 2.0566 3.5274 2.1978 3.5274 0.31874 0 0.3848-1.0679 0.19176-3.0999-0.35091-3.6939-0.33665-3.6455-1.0734-3.6455-0.69032 0-1.5129-0.47958-1.2627-0.73618 0.0839-0.086 0.25863-0.0476 0.38836 0.0855 0.12972 0.13303 0.49389 0.24188 0.80927 0.24188 0.66554 0 1.7387-0.97857 1.7387-1.5855 0-0.60743 0.24067-0.70759 0.48512-0.20189 0.27638 0.57178 1.1643 0.70497 1.8095 0.27142 0.29573-0.19871 0.52143-0.24217 0.59799-0.11514 0.0676 0.11222-0.12951 0.35261-0.43808 0.5342l-0.56103 0.33016 0.14526 2.789c0.16161 3.103 0.73022 6.8713 1.2143 8.0476 0.37867 0.92016 0.88143 1.1871 1.2534 0.66542 0.51652-0.72443 3.2669-10.041 3.2669-11.067 0-0.17586-0.17938-0.55363-0.39863-0.83947-0.41064-0.53537-0.55366-1.8954-0.19932-1.8954 0.10962 0 0.19932 0.28013 0.19932 0.62251 0 0.70044 0.76188 1.6267 1.3363 1.6247 0.19682-6.9e-4 0.61477-0.13866 0.92877-0.30661 0.314-0.16794 0.65035-0.30535 0.74744-0.30535 0.3574 0 0.16188 0.35004-0.32176 0.57603-1.1576 0.54093-0.0895 1.6062 1.4005 1.3968 0.49042-0.0689 0.89167-0.045 0.89167 0.0533 0 0.48924-1.8816 0.58635-2.5171 0.1299-0.40266-0.28923-0.42947-0.23795-1.0422 1.993-0.79907 2.9093-1.3862 6.0109-1.549 8.1831-0.12592 1.68-0.12109 1.7044 0.42448 2.1445 1.1152 0.89961 3.6655 0.4861 5.2009-0.8433l0.61679-0.53404 0.63835 0.67543c0.75902 0.8031 2.1346 1.5421 3.5096 1.8855 1.3576 0.33901 3.7684 0.33829 5.0128-2e-3zm-132.54-37.202c-0.42149-0.16101-0.97073-0.48968-1.2205-0.73036l-0.45421-0.4376-0.75061 0.52238c-1.3626 0.94831-3.8176 0.53324-4.8564-0.82108-0.38233-0.49846-0.56226-0.56966-1.3191-0.52193-1.9166 0.12087-3.17-1.1168-3.0344-2.9964 0.10782-1.4951 0.90069-2.6123 2.4192-3.4087 0.99453-0.52161 1.3909-0.61122 2.7237-0.61578l1.5598-0.0053 0.1256-0.76176c0.42712-2.5904 3.4768-3.9166 5.9763-2.5988 1.111 0.5857 1.8892 1.5992 1.8892 2.4604 0 0.54964 0.0242 0.56371 0.6097 0.35439 0.70387-0.25163 1.9622-0.09159 2.8084 0.35721 0.74619 0.39572 1.3638 1.4292 1.3647 2.2838 4.66e-4 0.41503 0.0999 0.66432 0.26498 0.66432 0.49997 0 1.131 0.92036 1.1302 1.6484-0.0016 1.4705-1.2258 2.7067-2.7418 2.7686-0.70674 0.02883-0.99859 0.16113-1.434 0.65005-0.30069 0.33762-0.84773 0.77349-1.2156 0.9686-0.90036 0.47748-2.875 0.59033-3.8451 0.21974zm3.565-0.50741c1.0272-0.47852 1.8853-1.5147 1.8853-2.2767 0-0.32201 0.08969-0.64232 0.19932-0.7118 0.11862-0.07518 0.19932 0.16822 0.19932 0.60116 0 0.6471 0.05724 0.72749 0.518 0.72749 1.2797 0 2.4752-1.1536 2.4687-2.3822-0.0036-0.67861-0.14956-0.94336-0.68624-1.2443-0.3051-0.1711-0.44392-0.14497-0.63582 0.11967-0.20054 0.27655-0.22447 0.12465-0.13066-0.82938 0.11069-1.1257 0.08993-1.1935-0.57426-1.8746-1.0035-1.0291-3.0765-1.2648-3.7545-0.42692-0.40429 0.49958-0.57679 0.34068-0.38288-0.3527 0.25173-0.90016-0.2666-1.9244-1.3739-2.715-1.1501-0.82107-2.8754-0.86887-4.1685-0.11548-1.277 0.74403-2.0741 2.7272-1.3952 3.4713 0.205 0.22471 0.16086 0.24913-0.24915 0.13785-1.9834-0.53832-3.8396-0.2811-5.1852 0.71851-1.0883 0.8085-1.59 1.7045-1.5909 2.8416-0.0012 1.5171 0.97355 2.4473 2.5646 2.4473 0.7177 0 0.80358-0.05722 0.92304-0.615 0.15283-0.71359 0.48862-0.65375 0.35497 0.06325-0.11348 0.60878 0.77122 1.7266 1.6719 2.1126 1.0663 0.45692 2.4883 0.3573 3.3377-0.23384l0.73663-0.51265 0.67344 0.52678c0.3704 0.28973 0.92593 0.6045 1.2345 0.69949 0.96938 0.2984 2.5148 0.21728 3.3598-0.17636zm111.71-17.716c-0.16443-0.03536-0.6263-0.11885-1.0264-0.18552-0.40006-0.06667-1.0501-0.3458-1.4445-0.62028-0.71435-0.49714-0.71958-0.49759-1.3654-0.11661-1.0171 0.59998-1.8245 0.69107-3.0053 0.33904-0.70071-0.2089-1.3017-0.56709-1.7474-1.0414-0.50101-0.53324-0.79544-0.69452-1.1219-0.61452-0.76202 0.18674-2.0822-0.24499-2.7063-0.88499-0.80348-0.82399-0.95929-2.2617-0.37288-3.4405 0.90027-1.8097 2.805-2.8145 5.1019-2.6913l1.2759 0.06842 0.12556-0.80819c0.28754-1.851 1.9176-3.1714 3.9204-3.1757 1.8311-4e-3 3.6672 1.2628 3.8886 2.6828l0.11784 0.75576 1.0448-0.11058c1.951-0.20651 3.4244 0.75416 3.6358 2.3706 0.0605 0.46224 0.19188 0.84043 0.29205 0.84043s0.40229 0.22578 0.67137 0.50172c0.94054 0.96456 0.44464 2.9723-0.91183 3.6917-0.34178 0.18125-0.98846 0.33475-1.4371 0.3411-0.64919 0.0092-0.9157 0.1335-1.306 0.60916-0.78503 0.95678-2.6142 1.7072-3.6293 1.4888zm2.4474-0.96572c0.87319-0.50329 1.539-1.4841 1.539-2.2671 0-0.2959 0.0897-0.53799 0.19932-0.53799s0.19932 0.27052 0.19932 0.60116c0 0.77909 0.21728 0.89553 1.1768 0.63057 1.6414-0.45327 2.4716-2.6194 1.3045-3.4037-0.3829-0.25729-0.56509-0.2837-0.73748-0.10692-0.36275 0.37202-0.58185 0.27306-0.35555-0.16058 0.31296-0.59969 0.23909-1.6984-0.1469-2.1853-0.94211-1.1883-2.7577-1.537-3.8177-0.73334-0.68614 0.52024-0.83223 0.41984-0.59958-0.41208 0.24559-0.87816-0.26539-1.8956-1.2895-2.5678-1.1687-0.76703-3.0935-0.86091-4.186-0.20416-0.42819 0.2574-0.95049 0.70591-1.1607 0.9967-0.50071 0.69275-0.7102 2.2088-0.33784 2.4448 0.44608 0.28274 0.0572 0.45331-0.42727 0.18741-0.28591-0.15692-1.0329-0.21338-2.0784-0.1571-1.3177 0.07093-1.81 0.19472-2.5552 0.64264-1.6407 0.98607-2.4443 3.2287-1.6195 4.5197 0.34036 0.53272 1.6045 1.1344 2.3834 1.1344 0.36969 0 0.56032-0.16686 0.75896-0.66432l0.26527-0.66432 0.13477 0.85898c0.15606 0.99465 0.91542 1.7052 2.2565 2.1114 1.03 0.31201 1.9919 0.1389 2.8544-0.51372l0.66393-0.50233 0.6708 0.60401c0.36895 0.33221 0.91582 0.65938 1.2153 0.72705 0.29945 0.06767 0.63416 0.15825 0.74378 0.20128 0.45596 0.17899 2.238-0.17152 2.9456-0.57939zm-94.532-1.3743c0-1.0542 0.07269-1.6133 0.19932-1.533 0.10962 0.06948 0.19932 0.75935 0.19932 1.533s-0.08969 1.4636-0.19932 1.533c-0.12663 0.08026-0.19932-0.47885-0.19932-1.533zm-7.1754-0.97791c0-0.08816 0.49331-0.65991 1.0962-1.2706 0.62836-0.6364 1.0962-0.97911 1.0962-0.80296 0 0.16902-0.42912 0.74077-0.9536 1.2706-0.92344 0.93278-1.2389 1.1372-1.2389 0.80296zm13.284-1.6485c-0.41971-0.4408-0.67951-0.85445-0.57732-0.91922 0.24014-0.1522 1.5131 1.1894 1.415 1.4912-0.04102 0.1262-0.41798-0.1312-0.8377-0.572zm-8.2165-0.65572c-3.4146-1.3472-5.0119-5.5181-3.4399-8.9822 0.92215-2.0321 2.8042-3.465 4.9723-3.7857 1.1293-0.16704 3.0381 0.2979 4.1329 1.0066 2.536 1.6418 3.5968 5.3943 2.3296 8.2403-1.4466 3.2489-4.8668 4.7552-7.9949 3.521zm4.7189-0.55826c2.1053-1.0537 3.1931-2.7819 3.3272-5.2859 0.0778-1.4531 0.02663-1.805-0.40119-2.7595-0.93695-2.0903-2.3292-3.2578-4.3549-3.6518-3.7633-0.73192-7.3046 2.6748-6.9053 6.6428 0.2282 2.2675 1.4576 4.0794 3.4292 5.0538 1.037 0.51252 1.3849 0.58307 2.5929 0.52574 0.9338-0.04431 1.6984-0.21797 2.3121-0.52509zm51.071-1.1828c-0.45718-0.17301-1.0402-0.52464-1.2956-0.7814-0.25538-0.25676-0.77425-0.57527-1.153-0.70781-1.1262-0.39407-1.5767-0.79881-1.712-1.5382-0.10329-0.56467-0.23841-0.71797-0.71986-0.81672-0.81007-0.16615-1.6749-1.1072-1.9813-2.1557-0.69544-2.3805 1.4448-5.8857 3.8328-6.2773 0.63398-0.10396 0.76357-0.19591 0.64801-0.45976-0.32325-0.73808-0.3163-2.0759 0.0135-2.592 0.52324-0.81895 1.4885-1.3133 2.5662-1.3141 0.80095-6.36e-4 1.0609 0.1006 1.5522 0.60446 0.51619 0.52937 0.65765 0.57891 1.1287 0.39525 1.2361-0.48196 2.9189 0.33262 3.6535 1.7685 0.44567 0.87106 0.5185 0.92413 1.1141 0.8117 0.73248-0.13826 1.9058 0.29853 2.6246 0.97708 2.0844 1.9676 0.76774 6.3013-2.2742 7.4855-0.78424 0.30529-1.0073 0.50096-1.1315 0.99265-0.28567 1.1306-1.3954 2.5351-2.5048 3.1702-1.292 0.73973-3.0872 0.91987-4.3615 0.43767zm3.305-0.40708c1.8822-0.57324 3.4061-2.6868 3.4061-4.7242 0-0.37346 0.0897-0.67901 0.19931-0.67901 0.10963 0 0.19932 0.23993 0.19932 0.53318 0 0.47052 0.0602 0.51768 0.51221 0.40134 1.7596-0.45292 3.2748-2.6064 3.2748-4.6545 0-1.8273-1.5308-3.2876-3.2186-3.0703-0.34002 0.04379-0.57164 0.2275-0.65097 0.51632-0.10074 0.36678-0.15417 0.39257-0.29371 0.14174-0.0938-0.16864-0.23033-0.64797-0.30337-1.0652-0.2654-1.5161-1.9581-2.5893-3.4277-2.1732-0.56837 0.16094-0.78751 0.37109-1.0464 1.0035-0.18012 0.43995-0.39476 0.80084-0.47697 0.80198-0.22357 0.0031-0.18203-0.34 0.13551-1.1194 0.26156-0.642 0.25218-0.7423-0.11413-1.2199-0.33308-0.43426-0.56492-0.52036-1.4012-0.52036-0.87383 0-1.0888 0.08893-1.6797 0.69498-0.81436 0.83516-0.90539 1.8428-0.26278 2.9091l0.41489 0.68845h-0.82147c-1.8458 0-3.8307 1.8714-4.2864 4.0415-0.23064 1.0982 0.0643 2.2354 0.78218 3.016 0.78734 0.85614 1.3633 0.89885 1.9936 0.14783 0.25948-0.30916 0.53173-0.5008 0.605-0.42585 0.0733 0.07495-0.0536 0.3279-0.28202 0.56212-0.79667 0.81701-0.38761 2.226 0.76599 2.6384 0.5671 0.20274 0.59185 0.18605 0.6509-0.4388 0.0338-0.35726 0.15107-0.60357 0.2607-0.54735 0.10962 0.05621 0.17947 0.24018 0.1552 0.40881-0.0855 0.59446 0.40637 1.4539 1.0177 1.7781 1.3952 0.7399 2.3433 0.8263 3.892 0.35465zm-67.75-3.768c0-0.12024 0.69761-0.20441 1.6942-0.20441s1.6942 0.08417 1.6942 0.20441-0.69761 0.20441-1.6942 0.20441-1.6942-0.08417-1.6942-0.20441zm18.044-0.39981c-0.07169-0.11896 4.43e-4 -0.26776 0.1603-0.33067 0.44764-0.17616 1.8274-0.01045 1.8274 0.21947 0 0.2792-1.825 0.3813-1.9877 0.1112zm-13.853-5.6251c-0.59277-0.61555-1.0135-1.1851-0.93502-1.2656 0.14615-0.14988 2.3254 1.9348 2.3254 2.2245 0 0.35754-0.36517 0.10569-1.3904-0.95889zm12.399-0.04594c0.40561-0.41597 0.8012-0.69096 0.87908-0.61109 0.19348 0.19842-0.92503 1.3674-1.3084 1.3674-0.2007 0-0.05097-0.26379 0.42928-0.7563zm-6.2253-3.0252c0-0.50591 0.08969-0.91983 0.19932-0.91983 0.10962 0 0.19932 0.41392 0.19932 0.91983s-0.08969 0.91983-0.19932 0.91983c-0.10962 0-0.19932-0.41392-0.19932-0.91983zm109.21-6.0198c-0.28132-0.08751-0.87964-0.3764-1.3296-0.64198-0.80521-0.47525-0.8247-0.47676-1.2356-0.09538-0.59673 0.55383-2.3703 0.66981-3.4966 0.22867-0.48536-0.1901-1.1333-0.6386-1.4399-0.99668-0.48371-0.56497-0.66692-0.64287-1.3857-0.58914-2.4191 0.18082-3.7574-2.0292-2.6497-4.3757 0.22476-0.47616 0.7288-1.1162 1.1201-1.4222 1.051-0.82212 2.9301-1.3747 4.1842-1.2306l1.029 0.1183 0.13386-0.81255c0.29994-1.8207 1.9888-3.1595 3.982-3.1567 1.8776 0.0026 3.8918 1.5786 3.8918 3.045 0 0.45082 0.0679 0.53231 0.34881 0.4184 0.97062-0.39365 1.6596-0.35144 2.6882 0.16469 1.1592 0.58165 1.7466 1.3774 1.7466 2.3664 0 0.34803 0.0938 0.63278 0.20838 0.63278 0.1146 0 0.42853 0.22578 0.69761 0.50172 1.3377 1.3719-0.2671 3.9925-2.4461 3.9945-0.67389 6.11e-4 -0.90659 0.10108-1.1628 0.50203-0.50125 0.78453-2.1813 1.5459-3.3656 1.5252-0.55401-0.0097-1.2375-0.08917-1.5188-0.17668zm3.3845-0.61441c1.0101-0.52849 1.811-1.5284 1.811-2.2611 0-0.32201 0.0897-0.64232 0.19932-0.7118 0.11862-0.07518 0.19932 0.16822 0.19932 0.60116 0 0.68476 0.038 0.72741 0.64778 0.72614 1.8399-0.0038 3.1072-2.4178 1.8162-3.4592-0.48335-0.38991-0.54525-0.39686-0.76684-0.08607-0.15841 0.22217-0.28677 0.26222-0.37439 0.11683-0.0733-0.12169-0.0422-0.27902 0.0692-0.34964 0.31235-0.19797 0.23969-1.5942-0.10958-2.1056-0.42168-0.61741-1.717-1.2694-2.5202-1.2684-0.36064 4.2e-4 -0.94939 0.18439-1.3083 0.40881s-0.68583 0.40805-0.72645 0.40805c-0.0406 0-7e-3 -0.303 0.0742-0.67333 0.27496-1.2503-0.3215-2.178-1.8843-2.9308-1.115-0.53707-1.632-0.58459-2.786-0.25605-1.6242 0.46242-2.9686 2.6283-2.3064 3.7157 0.2279 0.37424 0.2045 0.39396-0.32067 0.27001-2.0978-0.4951-3.7308-0.26531-5.0432 0.70962-1.1225 0.83389-1.6009 1.7047-1.6018 2.9157-6.4e-4 0.85541 0.0922 1.0867 0.67693 1.6864 0.58907 0.60411 0.80734 0.69498 1.6693 0.69498 0.94709 0 0.99709-0.02814 1.1138-0.62677 0.0672-0.34472 0.20906-0.57173 0.31519-0.50447 0.10612 0.06726 0.14181 0.25898 0.0793 0.42603-0.21026 0.56191 0.3684 1.5284 1.2223 2.0417 1.1785 0.70827 2.7556 0.70029 3.7894-0.01918l0.75061-0.52238 0.4247 0.40918c1.1116 1.0709 3.4781 1.3829 4.8894 0.64456zm-72.177-1.233c-0.29693-0.09179-0.81194-0.36557-1.1445-0.6084-0.56223-0.41057-0.63611-0.41877-1.0547-0.11707-1.3918 1.0032-3.4303 0.79329-4.7443-0.48853-0.66817-0.65184-0.90184-0.75427-1.7273-0.75718-2.4195-0.0085-3.6725-2.0169-2.6702-4.28 0.77423-1.7482 2.8128-2.8332 5.0942-2.7112l1.2806 0.06842 0.12904-0.71542c0.23203-1.2864 0.89012-2.2108 1.9651-2.7601 1.7572-0.89799 3.8731-0.55093 5.1432 0.84361 0.56912 0.62487 1.0274 1.6383 0.86375 1.9099-0.0542 0.08993 0.46662 0.11698 1.1574 0.06012 0.9168-0.07547 1.421-0.01585 1.8672 0.22081 0.94351 0.50036 1.6554 1.4879 1.6554 2.2964 0 0.38486 0.0938 0.69974 0.20838 0.69974 0.51015 0 1.1868 1.0151 1.1861 1.7793-1e-3 1.5354-1.2135 2.7323-2.7894 2.7546-0.58428 0.0083-0.90215 0.15611-1.3307 0.61892-0.91633 0.98948-1.8806 1.3905-3.2958 1.3707-0.68952-0.0097-1.4966-0.09267-1.7936-0.18447zm3.9498-0.72904c0.94243-0.55592 1.4044-1.1936 1.655-2.2849l0.17687-0.76992 0.02 0.74466c0.0232 0.86472 0.31936 1.0521 1.2364 0.78237 0.84031-0.24715 1.5089-0.90964 1.7855-1.7693 0.18355-0.57034 0.16486-0.78423-0.10548-1.2074-0.423-0.66205-0.82506-0.81277-1.2378-0.46403-0.29815 0.25189-0.31372 0.22003-0.16366-0.33484 0.23845-0.88171 0.18664-1.4686-0.18036-2.043-0.76714-1.2007-2.8136-1.5769-3.9385-0.72393l-0.61924 0.46951 0.13378-0.73129c0.19146-1.0467-0.27702-2.0413-1.2831-2.7241-1.7386-1.18-4.4413-0.77609-5.3813 0.80415-0.52729 0.8865-0.69916 1.911-0.38558 2.2985 0.33846 0.41824 0.1234 0.58914-0.38809 0.30841-0.51584-0.28312-2.6797-0.30158-3.5613-0.03039-2.5071 0.77122-3.8484 3.4925-2.5197 5.112 0.93623 1.1411 3.0749 1.3652 3.0749 0.32226 0-0.27892 0.0993-0.50712 0.22064-0.50712 0.12136 0 0.16709 0.14312 0.10164 0.31804-0.0654 0.17492 0.0115 0.63847 0.17111 1.0301 0.22655 0.55604 0.53615 0.82759 1.4129 1.2392 1.3453 0.63162 2.3618 0.57037 3.4264-0.20647l0.70381-0.51356 0.7325 0.60368c1.3081 1.0781 3.3588 1.1938 4.9126 0.27721z"/></g><g id="layer4" transform="translate(-5.4202 -20.104)"><g font-size="3.175px" stroke-width=".26458"><text id="text26" x="169.84006" y="32.417351" xml:space="preserve"><tspan id="tspan26" x="169.84006" y="32.417351">255/17</tspan><tspan id="tspan27" x="169.84006" y="36.386101"/></text><text id="text28" x="151.95251" y="59.218132" xml:space="preserve"><tspan id="tspan28" x="151.95251" y="59.218132" stroke-width=".26458">360/30</tspan></text><text id="text29" x="119.10783" y="49.267048" xml:space="preserve"><tspan id="tspan29" x="119.10783" y="49.267048" stroke-width=".26458">575/23</tspan></text><text id="text30" x="101.03712" y="30.830061" xml:space="preserve"><tspan id="tspan30" x="101.03712" y="30.830061" stroke-width=".26458">665/19</tspan></text></g><text id="text31" transform="scale(1.0149 .98536)" x="63.408916" y="53.672318" font-size="2.2671px" stroke-width=".18892" xml:space="preserve"><tspan id="tspan31" x="63.408916" y="53.672318" stroke-width=".18892">760/19</tspan></text><text id="text32" x="38.156013" y="77.59407" font-size="3.175px" stroke-width=".26458" xml:space="preserve"><tspan id="tspan32" x="38.156013" y="77.59407" stroke-width=".26458">765/17</tspan></text><text id="text33" transform="scale(.95002 1.0526)" x="40.952854" y="134.93787" font-size="2.3841px" stroke-width=".19868" xml:space="preserve"><tspan id="tspan33" x="40.952854" y="134.93787" stroke-width=".19868">850/17</tspan></text><text id="text34" transform="scale(.91193 1.0966)" x="141.98723" y="128.82605" font-size="2.5276px" stroke-width=".21063" xml:space="preserve"><tspan id="tspan34" x="141.98723" y="128.82605" stroke-width=".21063">1275/25</tspan></text><g font-size="3.175px"><g stroke-width=".26458"><text id="text35" x="151.83041" y="94.626923" xml:space="preserve"><tspan id="tspan35" x="151.83041" y="94.626923" stroke-width=".26458">1700 / 17</tspan></text><text id="text36" x="85.991859" y="80.120934" xml:space="preserve"><tspan id="tspan36" x="85.991859" y="80.120934" stroke-width=".26458">195 / 13</tspan></text><text id="text37" x="66.652321" y="94.107552" xml:space="preserve"><tspan id="tspan37" x="66.652321" y="94.107552" stroke-width=".26458">221 / 13</tspan></text><text id="text38" x="68.033714" y="99.633141" xml:space="preserve"><tspan id="tspan38" x="68.033714" y="99.633141" stroke-width=".26458">575 / 23</tspan></text></g><text id="text39" transform="scale(.90481 1.1052)" x="72.720917" y="102.40721" stroke-width=".15323" xml:space="preserve"><tspan id="tspan39" x="72.720917" y="102.40721" font-size="3.175px" stroke-width=".15323">81/9</tspan></text></g><text id="text40" transform="scale(.84142 1.1885)" x="90.436386" y="95.531647" font-size="3.0817px" stroke-width=".25681" xml:space="preserve"><tspan id="tspan40" x="90.436386" y="95.531647" stroke-width=".25681">72/9</tspan></text><text id="text41" transform="scale(.90206 1.1086)" x="72.605309" y="110.90467" font-size="2.7195px" stroke-width=".22662" xml:space="preserve"><tspan id="tspan41" x="72.605309" y="110.90467" stroke-width=".22662">88/11</tspan></text><text id="text42" transform="scale(.88685 1.1276)" x="85.029861" y="108.76173" font-size="2.0938px" stroke-width=".17448" xml:space="preserve"><tspan id="tspan42" x="85.029861" y="108.76173" stroke-width=".17448">737/11</tspan></text><text id="text43" x="98.510757" y="128.29709" font-size="3.175px" stroke-width=".26458" xml:space="preserve"><tspan id="tspan43" x="98.510757" y="128.29709" stroke-width=".26458">1275 / 17</tspan></text><text id="text44" x="154.25819" y="140.19595" font-size="1.8387px" stroke-width=".15323" xml:space="preserve"><tspan id="tspan44" x="154.25819" y="140.19595" stroke-width=".15323">2300 / 23</tspan></text><text id="text45" x="112.29815" y="68.966812" font-size="2.4145px" stroke-width=".20121" xml:space="preserve"><tspan id="tspan45" x="112.29815" y="68.966812" stroke-width=".20121">285 / 19</tspan></text></g></svg>
